# xmcd CD database file
#
# Track frame offsets:
#	150
#	15829
#	30486
#	44339
#	58795
#	72286
#	84571
#	98227
#	112859
#	129333
#	144970
#	162122
#	179254
#	194585
#	209594
#	223236
#	240098
#	255778
#	267699
#	282698
#
# Disc length: 3971 seconds
#
# Revision: 0
# Processed by: cddbd v1.4PL0 Copyright (c) Steve Scherf et al.
# Submitted via: CDex 1.50beta10
#
DISCID=1b0f8114
DTITLE=Lou Donaldson - Commplete 1952 Blue Note Sessions
DYEAR=1952
DGENRE=Jazz
TTITLE0=Tahiti
TTITLE1=Lillie
TTITLE2=Bag's Groove
TTITLE3=What's New
TTITLE4=Don't Get Around Much Anymore
TTITLE5=On The Scene
TTITLE6=Skippy
TTITLE7=Hornin' In
TTITLE8=Sixteen
TTITLE9=Carolina Moon
TTITLE10=Let's Cool One
TTITLE11=I'll Follow You
TTITLE12=Roccus
TTITLE13=The Things We Did Last Summer
TTITLE14=Cheek To Cheek
TTITLE15=Lou's Blues
TTITLE16=Sweet Juice
TTITLE17=If I Love Again
TTITLE18=Down Home
TTITLE19=The Best Things In Life Are Free
EXTD=YEAR: 1952
EXTT0=
EXTT1=
EXTT2=
EXTT3=
EXTT4=
EXTT5=
EXTT6=
EXTT7=
EXTT8=
EXTT9=
EXTT10=
EXTT11=
EXTT12=
EXTT13=
EXTT14=
EXTT15=
EXTT16=
EXTT17=
EXTT18=
EXTT19=
PLAYORDER=
